<svg xmlns="http://www.w3.org/2000/svg" width="911.616" height="312.154" viewBox="0 0 911.616 312.154">
  <g id="logo_de" transform="translate(-17.684 -13.846)">
    <g id="Group_287" data-name="Group 287">
      <path id="Path_319" data-name="Path 319" d="M141.7,326a153.647,153.647,0,0,1-89.9-28.7l6.9-9.8A144.055,144.055,0,0,0,285.8,163.6C282.4,84.3,215,22.6,135.7,26A144.433,144.433,0,0,0,45.2,63.2L37,54.4A156.209,156.209,0,0,1,135.1,14c86-3.8,159,63.1,162.7,149.1A156.179,156.179,0,0,1,148.6,325.9C146.4,326,144.1,326,141.7,326Z" fill="#1d1d1b"/>
    </g>
    <g id="Group_288" data-name="Group 288">
      <path id="Path_320" data-name="Path 320" d="M179.9,287.9l-3.7-11.4a112.554,112.554,0,0,0,60.4-46.6c33.2-52.2,17.8-121.7-34.3-154.9A112.234,112.234,0,0,0,31.2,187.2l-12,1.8A124.208,124.208,0,0,1,208.6,64.8c57.8,36.8,74.8,113.7,38,171.5A123.666,123.666,0,0,1,179.9,287.9Z" fill="#1d1d1b"/>
    </g>
    <g id="Group_289" data-name="Group 289">
      <path id="Path_321" data-name="Path 321" d="M216.9,118.6A90.292,90.292,0,0,1,72.6,227.1a89.463,89.463,0,0,1-16.3-79.2L67.9,151A77.559,77.559,0,0,0,82,219.6,78.261,78.261,0,1,0,150,93.2l1-12a90.487,90.487,0,0,1,63.4,34.1C215.3,116.4,216.1,117.5,216.9,118.6Z" fill="#1d1d1b"/>
    </g>
    <g id="Group_290" data-name="Group 290">
      <path id="Path_322" data-name="Path 322" d="M349.5,69.9c0-21,14.7-36.2,35.1-36.2,15.3,0,28.7,10.4,32.1,24.6l-8.6,1.2c-2.5-10.5-12.4-18.1-23.5-18.1-15.4,0-26.3,12-26.3,28.5,0,16.6,11.1,28.6,26.3,28.6,11,0,20.9-7.4,23.6-17.4l8.4,1.6c-3.4,13.6-16.8,23.5-32,23.5C364.2,106.2,349.4,90.9,349.5,69.9Z"/>
      <path id="Path_324" data-name="Path 324" d="M454,36h29.5c14.7,0,24.4,8.1,24.4,20.6,0,11.5-9,19.6-21.6,20.2h-1.2l24.6,27H498.6L475.1,77.3H462.6v26.5H454Zm29.5,33.6c9.7,0,15.7-5,15.7-13,0-7.9-6-12.9-15.7-12.9H462.7V69.6Z"/>
      <path id="Path_326" data-name="Path 326" d="M594.9,77.7V36h8.8V77.7c0,12.1,8,20.8,19,20.8,11.1,0,18.9-8.7,18.9-20.8V36h8.7V77.7c0,16.5-11.5,28.5-27.7,28.5S594.9,94.3,594.9,77.7Z"/>
      <path id="Path_328" data-name="Path 328" d="M738.7,36h11.9l25.3,67.8h-8.4l-5.8-15.2H727.2l-5.8,15.2H713Zm20.6,45.4L745.1,43.7h-.9L729.9,81.4Z"/>
      <path id="Path_330" data-name="Path 330" d="M350,182.7h8.7c.1,10.5,7.5,16.7,20.2,16.7,11.1,0,17.5-4.8,17.5-12.4,0-9.3-9.4-10.9-19.6-12.5-12.2-1.9-25.7-5.1-25.7-19.8,0-12.2,9.3-20.2,25.7-20.2,16.6,0,26.7,8.7,26.8,23h-8.5c0-9.6-6.7-15.3-18.4-15.3-11,0-16.9,4.7-16.9,12,0,8.9,9,10.6,19,12.1,12.3,2,26.2,4.7,26.2,20.1,0,12.7-9.7,20.7-26.3,20.7C361,207.1,350,197.8,350,182.7Z"/>
      <path id="Path_332" data-name="Path 332" d="M469.8,137h29.5c14.7,0,24.4,8.1,24.4,20.6,0,11.5-9,19.6-21.6,20.2h-1.2l24.6,27H514.4L491,178.2H478.5v26.5h-8.7Zm29.5,33.5c9.7,0,15.7-5,15.7-13,0-7.9-6-12.9-15.7-12.9H478.5v25.9Z"/>
      <path id="Path_334" data-name="Path 334" d="M602.7,170.8c0-21,14.7-36.2,35.1-36.2,15.3,0,28.7,10.4,32.1,24.6l-8.6,1.2c-2.5-10.5-12.4-18.1-23.5-18.1-15.4,0-26.3,12-26.3,28.5,0,16.6,11.1,28.6,26.3,28.6,11,0,20.9-7.4,23.6-17.4l8.4,1.6c-3.4,13.6-16.8,23.5-32,23.5C617.4,207.1,602.6,191.8,602.7,170.8Z"/>
      <path id="Path_336" data-name="Path 336" d="M735.2,178.7V137H744v41.7c0,12.1,8,20.8,19,20.8,11.1,0,18.9-8.7,18.9-20.8V137h8.7v41.7c0,16.5-11.5,28.5-27.7,28.5S735.2,195.2,735.2,178.7Z"/>
      <path id="Path_338" data-name="Path 338" d="M892.1,137H904l25.3,67.8H921l-5.8-15.2H880.7l-5.8,15.2h-8.4Zm20.6,45.3-14.2-37.7h-.9l-14.3,37.7Z"/>
      <path id="Path_340" data-name="Path 340" d="M353.7,237.9h21.7c23.5,0,39,13.4,39,33.8s-15.6,33.9-39,33.9H353.7ZM375.4,298c18.2,0,30.4-10,30.4-26.2,0-16.1-12.3-26.1-30.4-26.1h-13V298Z"/>
      <path id="Path_342" data-name="Path 342" d="M482.5,283.6h8.7c.1,10.5,7.5,16.7,20.2,16.7,11.1,0,17.5-4.8,17.5-12.4,0-9.3-9.4-10.9-19.6-12.5-12.2-1.9-25.7-5.1-25.7-19.8,0-12.2,9.3-20.2,25.7-20.2,16.6,0,26.7,8.7,26.8,23h-8.5c0-9.6-6.7-15.3-18.4-15.3-11,0-16.9,4.7-16.9,12,0,8.9,9,10.6,19,12.1,12.3,2,26.2,4.7,26.2,20.1,0,12.7-9.7,20.7-26.3,20.7C493.4,308,482.5,298.7,482.5,283.6Z"/>
      <path id="Path_344" data-name="Path 344" d="M571.2,271.7c0-21,15.3-36.2,36.5-36.2,14.2,0,27.1,8.3,30.9,19.6l-8,2.7c-2.9-8.5-12.4-14.6-22.9-14.6-16.2,0-27.8,11.8-27.8,28.5,0,16.5,11.6,28.6,27.8,28.6,14.6,0,26.1-10.5,26.5-24.1l-33.6-.1v-7.8h42.5c1.4,23.1-13.4,39.7-35.4,39.7C586.5,308,571.2,292.8,571.2,271.7Z"/>
    </g>
  </g>
</svg>
