<?xml version="1.0" encoding="UTF-8"?>
<svg class="logo-image" version="1.1" id="L7" xmlns="http://www.w3.org/2000/svg"
  xmlns:xlink="http://www.w3.org/1999/xlink" x="0px" y="0px" viewBox="0 0 100 100" enable-background="new 0 0 100 100"
  xml:space="preserve">
  <path fill="#000" d="M31.6,3.5C5.9,13.6-6.6,42.7,3.5,68.4c10.1,25.7,39.2,38.3,64.9,28.1l-3.1-7.9c-21.3,8.4-45.4-2-53.8-23.3
          c-8.4-21.3,2-45.4,23.3-53.8L31.6,3.5z">
  </path>
  <path fill="#000" d="M42.3,39.6c5.7-4.3,13.9-3.1,18.1,2.7c4.3,5.7,3.1,13.9-2.7,18.1l4.1,5.5c8.8-6.5,10.6-19,4.1-27.7
          c-6.5-8.8-19-10.6-27.7-4.1L42.3,39.6z">
  </path>
  <path fill="#000" d="M82,35.7C74.1,18,53.4,10.1,35.7,18S10.1,46.6,18,64.3l7.6-3.4c-6-13.5,0-29.3,13.5-35.3s29.3,0,35.3,13.5
          L82,35.7z">
  </path>
</svg>
<svg class="logo-image" id="Ebene_1"
  x="0px" y="0px" width="1000px" height="336.3px" viewBox="0 0 1000 336.3" style="enable-background:new 0 0 1000 336.3;"
  xml:space="preserve">
  <g class="text">
    <path
      d="M349.5,69.9c0-21,14.7-36.2,35.1-36.2c15.3,0,28.7,10.4,32.1,24.6l-8.6,1.2c-2.5-10.5-12.4-18.1-23.5-18.1    c-15.4,0-26.3,12-26.3,28.5c0,16.6,11.1,28.6,26.3,28.6c11,0,20.9-7.4,23.6-17.4l8.4,1.6c-3.4,13.6-16.8,23.5-32,23.5    C364.2,106.2,349.4,90.9,349.5,69.9z">
    </path>
    <path d="M428.9,36h8.7v67.8h-8.7V36z"></path>
    <path
      d="M454,36h29.5c14.7,0,24.4,8.1,24.4,20.6c0,11.5-9,19.6-21.6,20.2h-1.2l24.6,27h-11.1l-23.5-26.5h-12.5v26.5H454V36z     M483.5,69.6c9.7,0,15.7-5,15.7-13c0-7.9-6-12.9-15.7-12.9h-20.8v25.9H483.5z">
    </path>
    <path
      d="M516.1,69.9c0-21,14.7-36.2,35.1-36.2c15.3,0,28.7,10.4,32.1,24.6l-8.6,1.2c-2.5-10.5-12.4-18.1-23.5-18.1    c-15.4,0-26.3,12-26.3,28.5c0,16.6,11.1,28.6,26.3,28.6c11,0,20.9-7.4,23.6-17.4l8.4,1.6c-3.4,13.6-16.8,23.5-32,23.5    C530.8,106.2,516,90.9,516.1,69.9z">
    </path>
    <path
      d="M594.9,77.7V36h8.8v41.7c0,12.1,8,20.8,19,20.8c11.1,0,18.9-8.7,18.9-20.8V36h8.7v41.7c0,16.5-11.5,28.5-27.7,28.5    S594.9,94.3,594.9,77.7z">
    </path>
    <path d="M666.3,36h8.7v60.1h34.1v7.7h-42.9V36z"></path>
    <path
      d="M738.7,36h11.9l25.3,67.8h-8.4l-5.8-15.2h-34.5l-5.8,15.2h-8.4L738.7,36z M759.3,81.4l-14.2-37.7h-0.9l-14.3,37.7H759.3z">
    </path>
    <path
      d="M786,36h29.5c14.7,0,24.4,8.1,24.4,20.6c0,11.5-9,19.6-21.6,20.2h-1.2l24.6,27h-11.1l-23.5-26.5h-12.5v26.5H786V36z     M815.5,69.6c9.7,0,15.7-5,15.7-13c0-7.9-6-12.9-15.7-12.9h-20.8v25.9H815.5z">
    </path>
    <path
      d="M350,182.7h8.7c0.1,10.5,7.5,16.7,20.2,16.7c11.1,0,17.5-4.8,17.5-12.4c0-9.3-9.4-10.9-19.6-12.5    c-12.2-1.9-25.7-5.1-25.7-19.8c0-12.2,9.3-20.2,25.7-20.2c16.6,0,26.7,8.7,26.8,23h-8.5c0-9.6-6.7-15.3-18.4-15.3    c-11,0-16.9,4.7-16.9,12c0,8.9,9,10.6,19,12.1c12.3,2,26.2,4.7,26.2,20.1c0,12.7-9.7,20.7-26.3,20.7    C361,207.1,350,197.8,350,182.7z">
    </path>
    <path d="M430.2,144.6h-22.4V137h53.6v7.7h-22.5v60.1h-8.7V144.6z"></path>
    <path
      d="M469.8,137h29.5c14.7,0,24.4,8.1,24.4,20.6c0,11.5-9,19.6-21.6,20.2h-1.2l24.6,27h-11.1L491,178.2h-12.5v26.5h-8.7V137z     M499.3,170.5c9.7,0,15.7-5,15.7-13c0-7.9-6-12.9-15.7-12.9h-20.8v25.9H499.3z">
    </path>
    <path
      d="M535.4,178.7V137h8.8v41.7c0,12.1,8,20.8,19,20.8c11.1,0,18.9-8.7,18.9-20.8V137h8.7v41.7c0,16.5-11.5,28.5-27.7,28.5    S535.4,195.2,535.4,178.7z">
    </path>
    <path
      d="M602.7,170.8c0-21,14.7-36.2,35.1-36.2c15.3,0,28.7,10.4,32.1,24.6l-8.6,1.2c-2.5-10.5-12.4-18.1-23.5-18.1    c-15.4,0-26.3,12-26.3,28.5c0,16.6,11.1,28.6,26.3,28.6c11,0,20.9-7.4,23.6-17.4l8.4,1.6c-3.4,13.6-16.8,23.5-32,23.5    C617.4,207.1,602.6,191.8,602.7,170.8z">
    </path>
    <path d="M696.1,144.6h-22.4V137h53.6v7.7h-22.5v60.1h-8.7V144.6z"></path>
    <path
      d="M735.2,178.7V137h8.8v41.7c0,12.1,8,20.8,19,20.8c11.1,0,18.9-8.7,18.9-20.8V137h8.7v41.7c0,16.5-11.5,28.5-27.7,28.5    S735.2,195.2,735.2,178.7z">
    </path>
    <path
      d="M806.6,137h29.5c14.7,0,24.4,8.1,24.4,20.6c0,11.5-9,19.6-21.6,20.2h-1.2l24.6,27h-11.1l-23.5-26.5h-12.5v26.5h-8.7V137z     M836.1,170.5c9.7,0,15.7-5,15.7-13c0-7.9-6-12.9-15.7-12.9h-20.8v25.9H836.1z">
    </path>
    <path
      d="M892.1,137h11.9l25.3,67.8H921l-5.8-15.2h-34.5l-5.8,15.2h-8.4L892.1,137z M912.7,182.3l-14.2-37.7h-0.9l-14.3,37.7H912.7    z">
    </path>
    <path d="M939.4,137h8.7V197h34.1v7.7h-42.9V137z"></path>
    <path
      d="M353.7,237.9h21.7c23.5,0,39,13.4,39,33.8s-15.6,33.9-39,33.9h-21.7V237.9z M375.4,298c18.2,0,30.4-10,30.4-26.2    c0-16.1-12.3-26.1-30.4-26.1h-13V298H375.4z">
    </path>
    <path d="M426.6,237.9h46.5v7.7h-37.7v21.1h33.8v7.7h-33.8V298h38.6v7.7h-47.5V237.9z"></path>
    <path
      d="M482.5,283.6h8.7c0.1,10.5,7.5,16.7,20.2,16.7c11.1,0,17.5-4.8,17.5-12.4c0-9.3-9.4-10.9-19.6-12.5    c-12.2-1.9-25.7-5.1-25.7-19.8c0-12.2,9.3-20.2,25.7-20.2c16.6,0,26.7,8.7,26.8,23h-8.5c0-9.6-6.7-15.3-18.4-15.3    c-11,0-16.9,4.7-16.9,12c0,8.9,9,10.6,19,12.1c12.3,2,26.2,4.7,26.2,20.1c0,12.7-9.7,20.7-26.3,20.7    C493.4,308,482.5,298.7,482.5,283.6z">
    </path>
    <path d="M550.2,237.9h8.7v67.8h-8.7V237.9z"></path>
    <path
      d="M571.2,271.7c0-21,15.3-36.2,36.5-36.2c14.2,0,27.1,8.3,30.9,19.6l-8,2.7c-2.9-8.5-12.4-14.6-22.9-14.6    c-16.2,0-27.8,11.8-27.8,28.5c0,16.5,11.6,28.6,27.8,28.6c14.6,0,26.1-10.5,26.5-24.1l-33.6-0.1v-7.8h42.5    c1.4,23.1-13.4,39.7-35.4,39.7C586.5,308,571.2,292.8,571.2,271.7z">
    </path>
    <path d="M655.3,237.9h12.6l32.1,56.2h0.9v-56.2h8.7v67.8h-12.5L665,249.4h-1v56.2h-8.7V237.9z"></path>
  </g>
</svg>
