<?xml version="1.0" encoding="UTF-8"?>
<!-- Generator: Adobe Illustrator 25.2.1, SVG Export Plug-In . SVG Version: 6.00 Build 0)  -->
<svg class="logo-image german" id="logoDe" xmlns="http://www.w3.org/2000/svg" xmlns:xlink="http://www.w3.org/1999/xlink" id="Ebene_1" x="0px" y="0px" width="1000px" height="336.3px" viewBox="0 0 1000 336.3" style="enable-background:new 0 0 1000 336.3;" xml:space="preserve">
<style type="text/css">
	.st0{fill:#1D1D1B;}
</style>
<g>
	<g>
		<path class="st0" fill="#1D1D1B" d="M141.7,326c-32.4,0-63.4-9.8-89.9-28.7l6.9-9.8c26.3,18.6,57.2,27.7,89.5,26.3c38.4-1.7,73.9-18.2,99.9-46.6    c26-28.4,39.4-65.2,37.7-103.6C282.4,84.3,215,22.6,135.7,26c-33.6,1.5-65.7,14.7-90.5,37.2L37,54.4C63.9,29.9,98.8,15.6,135.1,14    c86-3.8,159,63.1,162.7,149.1c1.8,41.7-12.7,81.5-40.9,112.3c-28.2,30.7-66.6,48.7-108.3,50.5C146.4,326,144.1,326,141.7,326z"></path>
	</g>
	<g>
		<path class="st0" fill="#1D1D1B" d="M179.9,287.9l-3.7-11.4c24.9-8,46.3-24.5,60.4-46.6c33.2-52.2,17.8-121.7-34.3-154.9    c-25.3-16.1-55.3-21.4-84.6-14.9c-29.3,6.5-54.2,24-70.3,49.3c-14.7,23.1-20.5,50.7-16.2,77.8L19.2,189    c-4.7-29.9,1.6-60.5,17.9-86.1C55,74.9,82.7,55.5,115,48.3c32.4-7.2,65.6-1.3,93.6,16.5c57.8,36.8,74.8,113.7,38,171.5    C231.1,260.8,207.4,279.1,179.9,287.9z"></path>
	</g>
	<g>
		<path class="st0" fill="#1D1D1B" d="M216.9,118.6c13.2,18.4,19,40.7,16.3,63.3c-2.9,23.9-14.9,45.3-33.8,60.3c-39.1,30.8-96,24-126.8-15.1    c-17.8-22.5-23.7-51.4-16.3-79.2l11.6,3.1c-6.4,24.1-1.3,49.1,14.1,68.6c26.7,33.9,76,39.8,109.9,13.1    c16.4-12.9,26.8-31.5,29.3-52.2c2.5-20.8-3.3-41.2-16.2-57.7c-13.4-17-33.4-27.8-55-29.6l1-12c24.9,2.1,48,14.5,63.4,34.1    C215.3,116.4,216.1,117.5,216.9,118.6z"></path>
	</g>
</g>
<g>
	<path d="M355.2,98.8L394.7,44v-1h-38.6v-7.6h51.4v3.9L368,94.2v1h40.5v7.6h-53.3V98.8z"></path>
	<path d="M420.2,35.4h8.7v67.3h-8.7V35.4z"></path>
	<path d="M445.2,35.4h29.3c14.6,0,24.3,8,24.3,20.4c0,11.5-9,19.5-21.5,20.1h-1.1l24.5,26.8h-11l-23.3-26.4h-12.4v26.4h-8.7V35.4z    M474.5,68.8c9.6,0,15.6-5,15.6-12.9c0-7.8-5.9-12.8-15.6-12.8h-20.6v25.7H474.5z"></path>
	<path d="M511,35.4h8.7v29.4h1l27.9-29.4h10.9L528.1,68l32.3,34.8h-11l-28.8-31.6h-1v31.6H511V35.4z"></path>
	<path d="M569,76.9V35.4h8.8v41.5c0,12,7.9,20.6,18.9,20.6c11,0,18.8-8.6,18.8-20.6V35.4h8.7v41.5c0,16.4-11.5,28.3-27.5,28.3   C580.6,105.2,569,93.3,569,76.9z"></path>
	<path d="M639.9,35.4h8.7v59.7h33.9v7.6h-42.6V35.4z"></path>
	<path d="M711.8,35.4h11.8l25.1,67.3h-8.3l-5.7-15.1h-34.3l-5.7,15.1h-8.3L711.8,35.4z M701.1,21.6c0-3.2,2.3-5.5,5.6-5.5   c3.3,0,5.7,2.3,5.7,5.5c0,3.3-2.4,5.7-5.7,5.7C703.3,27.3,701.1,24.9,701.1,21.6z M732.3,80.5l-14.1-37.4h-0.9l-14.2,37.4H732.3z    M723,21.6c0-3.2,2.4-5.5,5.7-5.5c3.3,0,5.7,2.3,5.7,5.5c0,3.3-2.4,5.7-5.7,5.7C725.4,27.3,723,24.9,723,21.6z"></path>
	<path d="M758.8,35.4h29.3c14.6,0,24.3,8,24.3,20.4c0,11.5-9,19.5-21.5,20.1h-1.1l24.5,26.8h-11l-23.3-26.4h-12.4v26.4h-8.7V35.4z    M788.2,68.8c9.6,0,15.6-5,15.6-12.9c0-7.8-5.9-12.8-15.6-12.8h-20.6v25.7H788.2z"></path>
	<path d="M824.6,35.4h46.2v7.6h-37.4v21h33.6v7.6h-33.6v23.4h38.4v7.6h-47.2V35.4z"></path>
	<path d="M373.9,144.1h-22.3v-7.6H405v7.6h-22.4v59.7h-8.7V144.1z"></path>
	<path d="M413.3,136.4h29.3c14.6,0,24.3,8,24.3,20.4c0,11.5-9,19.5-21.5,20.1h-1.1l24.5,26.8h-11l-23.3-26.4H422v26.4h-8.7V136.4z    M442.6,169.8c9.6,0,15.6-5,15.6-12.9c0-7.8-5.9-12.8-15.6-12.8H422v25.7H442.6z"></path>
	<path d="M498.3,136.4h11.8l25.1,67.3h-8.3l-5.7-15.1h-34.3l-5.7,15.1h-8.3L498.3,136.4z M518.7,181.5l-14.1-37.4h-0.9l-14.2,37.4   H518.7z"></path>
	<path d="M539.3,170.1c0-20.9,15.2-36,36.3-36c14.1,0,26.9,8.2,30.7,19.5l-7.9,2.7c-2.9-8.4-12.3-14.5-22.7-14.5   c-16.1,0-27.6,11.7-27.6,28.4c0,16.4,11.6,28.5,27.6,28.5c14.5,0,26-10.4,26.4-24l-33.4-0.1v-7.7h42.2   c1.4,22.9-13.3,39.4-35.2,39.4C554.4,206.2,539.3,191,539.3,170.1z"></path>
	<path d="M616.4,136.4h8.4l17.2,60h1l15.3-60h11.3l15.2,60h1l17.2-60h8.3l-19.5,67.3h-13.4l-14-56.8h-0.9l-14,56.8H636L616.4,136.4z   "></path>
	<path d="M722.9,136.4h46.2v7.6h-37.4v21h33.6v7.6h-33.6v23.4h38.4v7.6h-47.2V136.4z"></path>
	<path d="M782.1,136.4h29.3c14.6,0,24.3,8,24.3,20.4c0,11.5-9,19.5-21.5,20.1H813l24.5,26.8h-11l-23.3-26.4h-12.4v26.4h-8.7V136.4z    M811.4,169.8c9.6,0,15.6-5,15.6-12.9c0-7.8-5.9-12.8-15.6-12.8h-20.6v25.7H811.4z"></path>
	<path d="M847.9,136.4h8.7v29.4h1l27.9-29.4h10.9L865,169l32.3,34.8h-11l-28.8-31.6h-1v31.6h-8.7V136.4z"></path>
	<path d="M900.6,181.9h8.6c0.1,10.4,7.5,16.6,20.1,16.6c11,0,17.4-4.8,17.4-12.3c0-9.3-9.4-10.8-19.5-12.4   c-12.1-1.9-25.5-5.1-25.5-19.7c0-12.1,9.3-20.1,25.5-20.1c16.5,0,26.6,8.6,26.7,22.8h-8.4c0-9.6-6.7-15.2-18.2-15.2   c-10.9,0-16.8,4.7-16.8,11.9c0,8.9,9,10.5,18.9,12c12.2,2,26.1,4.7,26.1,20c0,12.6-9.6,20.5-26.2,20.5   C911.5,206.2,900.6,196.9,900.6,181.9z"></path>
	<path d="M359.6,237.4h26.8c14.7,0,24.3,7.7,24.2,20.6c0,12.7-9.8,20.6-24.2,20.6h-18.3v26.1h-8.5V237.4z M386.4,271   c9.7,0,15.6-5.1,15.6-12.9c0-7.9-5.8-13-15.6-13h-18.3V271H386.4z"></path>
	<path d="M421.8,237.4h8.7v59.7h33.9v7.6h-42.6V237.4z"></path>
	<path d="M493.7,237.4h11.8l25.1,67.3h-8.3l-5.7-15.1h-34.3l-5.7,15.1h-8.3L493.7,237.4z M514.1,282.5L500,245.1h-0.9l-14.2,37.4   H514.1z"></path>
	<path d="M540.7,237.4h12.5l31.9,55.9h0.9v-55.9h8.7v67.3h-12.4l-31.9-55.9h-1v55.9h-8.7V237.4z"></path>
	<path d="M610.3,278.9v-41.5h8.8v41.5c0,12,7.9,20.6,18.9,20.6s18.8-8.6,18.8-20.6v-41.5h8.7v41.5c0,16.4-11.5,28.3-27.5,28.3   C622,307.2,610.3,295.3,610.3,278.9z"></path>
	<path d="M681.3,237.4h12.5l31.9,55.9h0.9v-55.9h8.7v67.3h-12.4l-31.9-55.9h-1v55.9h-8.7V237.4z"></path>
	<path d="M747.4,271.1c0-20.9,15.2-36,36.3-36c14.1,0,26.9,8.2,30.7,19.5l-7.9,2.7c-2.9-8.4-12.3-14.5-22.7-14.5   c-16.1,0-27.6,11.7-27.6,28.4c0,16.4,11.6,28.5,27.6,28.5c14.5,0,26-10.4,26.4-24l-33.4-0.1v-7.7h42.2   c1.4,22.9-13.3,39.4-35.2,39.4C762.6,307.2,747.4,292,747.4,271.1z"></path>
</g>
</svg>
