<svg width="98" height="36" viewBox="0 0 98 36" fill="none" xmlns="http://www.w3.org/2000/svg">
<path d="M45.004 9.3C46.9 9.3 48.58 8.064 49 6.372L47.956 6.168C47.608 7.416 46.372 8.34 45.004 8.34C43.096 8.34 41.716 6.84 41.716 4.764C41.716 2.7 43.084 1.2 45.004 1.2C46.396 1.2 47.632 2.148 47.944 3.456L49.012 3.312C48.592 1.536 46.912 0.24 45.004 0.24C42.46 0.24 40.624 2.136 40.624 4.764C40.612 7.392 42.46 9.3 45.004 9.3Z" fill="black"/>
<path d="M51.1568 1.788C51.5768 1.788 51.8648 1.488 51.8648 1.068C51.8648 0.659999 51.5768 0.372 51.1568 0.372C50.7368 0.372 50.4368 0.659999 50.4368 1.068C50.4368 1.488 50.7368 1.788 51.1568 1.788ZM50.6528 9H51.6488V2.94H50.6528V9Z" fill="black"/>
<path d="M53.592 9H54.588V5.736C54.588 4.536 55.224 3.72 56.136 3.72C56.364 3.72 56.724 3.768 57.036 3.9V2.976C56.856 2.88 56.568 2.82 56.292 2.82C55.62 2.82 54.948 3.204 54.672 3.756H54.564V2.94H53.592V9Z" fill="black"/>
<path d="M60.9243 9.24C62.3763 9.24 63.6242 8.316 63.9002 7.032L62.9163 6.9C62.6763 7.752 61.8723 8.34 60.9243 8.34C59.6883 8.34 58.7643 7.368 58.7643 5.964C58.7523 4.572 59.7002 3.6 60.9362 3.6C61.8602 3.6 62.6883 4.188 62.9043 5.064L63.8763 4.932C63.6483 3.636 62.4123 2.7 60.9243 2.7C59.0883 2.7 57.7682 4.068 57.7682 5.964C57.7562 7.86 59.0883 9.24 60.9243 9.24Z" fill="black"/>
<path d="M70.8399 2.94H69.8439V6.468C69.8439 7.536 68.9679 8.316 67.9479 8.316C66.9039 8.316 66.3039 7.584 66.3039 6.552V2.94H65.3079V6.552C65.3079 8.1 66.2799 9.216 67.8279 9.216C68.6199 9.216 69.3039 8.832 69.7239 8.172H69.8439V9H70.8399V2.94Z" fill="black"/>
<path d="M72.6935 9H73.6895V0.18H72.6935V9Z" fill="black"/>
<path d="M77.2215 9.192C78.1935 9.192 78.9015 8.808 79.3335 8.112H79.4415V9H80.4375V4.98C80.4375 3.6 79.4415 2.712 77.8695 2.712C76.3455 2.712 75.3495 3.528 75.3495 4.812H76.3575C76.3455 4.056 76.9455 3.612 77.8575 3.612C78.8535 3.612 79.4415 4.14 79.4415 4.956V5.196L77.7615 5.4C75.9615 5.604 75.0495 6.396 75.0495 7.464C75.0495 8.508 75.9135 9.192 77.2215 9.192ZM77.3655 8.364C76.5495 8.364 76.0455 8.016 76.0455 7.44C76.0455 6.876 76.5255 6.396 77.7615 6.24L79.4415 6.048V6.588C79.4415 7.608 78.6015 8.364 77.3655 8.364Z" fill="black"/>
<path d="M82.1623 9H83.1583V5.736C83.1583 4.536 83.7943 3.72 84.7063 3.72C84.9343 3.72 85.2943 3.768 85.6063 3.9V2.976C85.4263 2.88 85.1383 2.82 84.8623 2.82C84.1903 2.82 83.5183 3.204 83.2423 3.756H83.1343V2.94H82.1623V9Z" fill="black"/>
<path d="M44.272 21.3C46.348 21.3 47.56 20.304 47.56 18.72C47.56 16.8 45.82 16.464 44.284 16.212C43.036 16.02 41.908 15.816 41.908 14.7C41.908 13.788 42.652 13.2 44.02 13.2C45.472 13.2 46.312 13.908 46.312 15.108H47.368C47.356 13.32 46.096 12.24 44.02 12.24C41.98 12.24 40.816 13.236 40.816 14.76C40.816 16.596 42.496 16.992 44.02 17.232C45.292 17.436 46.468 17.628 46.468 18.792C46.468 19.74 45.664 20.34 44.284 20.34C42.7 20.34 41.776 19.56 41.764 18.252H40.684C40.684 20.136 42.052 21.3 44.272 21.3Z" fill="black"/>
<path d="M51.3583 21.228C51.6583 21.228 52.0543 21.168 52.3423 21.072V20.268C52.1143 20.34 51.8023 20.388 51.6223 20.388C51.0463 20.388 50.6863 19.98 50.6863 19.404V15.732H52.2463V14.94H50.6863L50.6983 12.984H49.9183L49.6903 14.94H48.7063V15.732H49.6903V19.44C49.6903 20.508 50.3383 21.228 51.3583 21.228Z" fill="black"/>
<path d="M53.8498 21H54.8458V17.736C54.8458 16.536 55.4818 15.72 56.3938 15.72C56.6218 15.72 56.9818 15.768 57.2938 15.9V14.976C57.1138 14.88 56.8258 14.82 56.5498 14.82C55.8778 14.82 55.2058 15.204 54.9298 15.756H54.8218V14.94H53.8498V21Z" fill="black"/>
<path d="M63.9844 14.94H62.9884V18.468C62.9884 19.536 62.1124 20.316 61.0924 20.316C60.0484 20.316 59.4484 19.584 59.4484 18.552V14.94H58.4524V18.552C58.4524 20.1 59.4244 21.216 60.9724 21.216C61.7644 21.216 62.4484 20.832 62.8684 20.172H62.9884V21H63.9844V14.94Z" fill="black"/>
<path d="M68.6821 21.24C70.1341 21.24 71.3821 20.316 71.6581 19.032L70.6741 18.9C70.4341 19.752 69.6301 20.34 68.6821 20.34C67.4461 20.34 66.5221 19.368 66.5221 17.964C66.5101 16.572 67.4581 15.6 68.6941 15.6C69.6181 15.6 70.4461 16.188 70.6621 17.064L71.6341 16.932C71.4061 15.636 70.1701 14.7 68.6821 14.7C66.8461 14.7 65.5261 16.068 65.5261 17.964C65.5141 19.86 66.8461 21.24 68.6821 21.24Z" fill="black"/>
<path d="M75.1473 21.228C75.4473 21.228 75.8433 21.168 76.1313 21.072V20.268C75.9033 20.34 75.5913 20.388 75.4113 20.388C74.8353 20.388 74.4753 19.98 74.4753 19.404V15.732H76.0353V14.94H74.4753L74.4873 12.984H73.7073L73.4793 14.94H72.4953V15.732H73.4793V19.44C73.4793 20.508 74.1273 21.228 75.1473 21.228Z" fill="black"/>
<path d="M83.0508 14.94H82.0548V18.468C82.0548 19.536 81.1788 20.316 80.1588 20.316C79.1148 20.316 78.5148 19.584 78.5148 18.552V14.94H77.5188V18.552C77.5188 20.1 78.4908 21.216 80.0388 21.216C80.8308 21.216 81.5148 20.832 81.9348 20.172H82.0548V21H83.0508V14.94Z" fill="black"/>
<path d="M84.9045 21H85.9005V17.736C85.9005 16.536 86.5365 15.72 87.4485 15.72C87.6765 15.72 88.0365 15.768 88.3485 15.9V14.976C88.1685 14.88 87.8805 14.82 87.6045 14.82C86.9325 14.82 86.2605 15.204 85.9845 15.756H85.8765V14.94H84.9045V21Z" fill="black"/>
<path d="M91.1902 21.192C92.1622 21.192 92.8702 20.808 93.3022 20.112H93.4102V21H94.4062V16.98C94.4062 15.6 93.4102 14.712 91.8382 14.712C90.3142 14.712 89.3182 15.528 89.3182 16.812H90.3262C90.3142 16.056 90.9142 15.612 91.8262 15.612C92.8222 15.612 93.4102 16.14 93.4102 16.956V17.196L91.7302 17.4C89.9302 17.604 89.0182 18.396 89.0182 19.464C89.0182 20.508 89.8822 21.192 91.1902 21.192ZM91.3342 20.364C90.5182 20.364 90.0142 20.016 90.0142 19.44C90.0142 18.876 90.4942 18.396 91.7302 18.24L93.4102 18.048V18.588C93.4102 19.608 92.5702 20.364 91.3342 20.364Z" fill="black"/>
<path d="M96.131 21H97.127V12.18H96.131V21Z" fill="black"/>
<path d="M41.14 33H43.852C46.78 33 48.724 31.32 48.724 28.764C48.724 26.208 46.78 24.54 43.852 24.54H41.14V33ZM42.232 32.04V25.5H43.852C46.108 25.5 47.644 26.748 47.644 28.764C47.644 30.792 46.12 32.04 43.852 32.04H42.232Z" fill="black"/>
<path d="M53.2276 33.24C54.5716 33.24 55.6636 32.616 56.1556 31.584L55.3276 31.164C54.9436 31.884 54.1516 32.34 53.2516 32.34C52.0156 32.34 51.1276 31.524 50.9836 30.3H56.3476C56.3596 30.168 56.3596 30.024 56.3596 29.904C56.3596 28.044 55.0276 26.7 53.1796 26.7C51.3076 26.7 49.9636 28.044 49.9636 29.892C49.9636 31.836 51.3316 33.24 53.2276 33.24ZM50.9956 29.424C51.1636 28.332 52.0156 27.6 53.1316 27.6C54.2836 27.6 55.1356 28.332 55.3156 29.424H50.9956Z" fill="black"/>
<path d="M60.3768 33.24C61.9248 33.24 62.8488 32.556 62.8488 31.368C62.8488 29.916 61.5407 29.628 60.4007 29.484C59.5007 29.376 58.6847 29.316 58.6847 28.56C58.6847 27.936 59.2848 27.54 60.1608 27.54C61.0968 27.54 61.7328 28.008 61.7448 28.752H62.7168C62.7168 27.504 61.6847 26.7 60.1727 26.7C58.7207 26.7 57.7368 27.42 57.7368 28.596C57.7368 29.976 59.0447 30.276 60.1727 30.408C61.0847 30.528 61.9128 30.588 61.9128 31.38C61.9128 32.016 61.3248 32.4 60.4128 32.4C59.2728 32.4 58.6007 31.812 58.5887 30.948H57.6287C57.6287 32.388 58.6368 33.24 60.3768 33.24Z" fill="black"/>
<path d="M65.0318 25.788C65.4518 25.788 65.7398 25.488 65.7398 25.068C65.7398 24.66 65.4518 24.372 65.0318 24.372C64.6118 24.372 64.3118 24.66 64.3118 25.068C64.3118 25.488 64.6118 25.788 65.0318 25.788ZM64.5278 33H65.5238V26.94H64.5278V33Z" fill="black"/>
<path d="M70.395 36C72.351 36 73.623 34.788 73.623 32.892V26.94H72.639V27.804H72.519C72.003 27.132 71.271 26.712 70.299 26.712C68.475 26.712 67.155 28.092 67.155 29.964C67.155 31.824 68.475 33.156 70.299 33.156C71.247 33.156 71.979 32.748 72.507 32.076H72.627V32.892C72.627 34.248 71.763 35.1 70.443 35.1C69.363 35.1 68.595 34.548 68.271 33.612L67.275 33.984C67.683 35.244 68.835 36 70.395 36ZM70.407 32.28C69.099 32.28 68.151 31.296 68.151 29.964C68.151 28.596 69.099 27.6 70.407 27.6C71.703 27.6 72.663 28.596 72.663 29.964C72.663 31.296 71.715 32.28 70.407 32.28Z" fill="black"/>
<path d="M75.4592 33H76.4552V29.46C76.4552 28.404 77.3312 27.612 78.3512 27.612C79.3952 27.612 80.0072 28.356 80.0072 29.376V33H81.0032V29.376C81.0032 27.84 80.0192 26.712 78.4832 26.712C77.6792 26.712 77.0072 27.096 76.5752 27.768H76.4552V26.94H75.4592V33Z" fill="black"/>
<path d="M13.26 33.4092C9.78699 33.4092 6.46834 32.3544 3.63848 30.3478L4.38453 29.293C7.18867 31.2997 10.5073 32.2515 13.9546 32.1229C18.0708 31.9428 21.8782 30.1677 24.6566 27.1321C27.435 24.0964 28.8757 20.1603 28.6956 16.0442C28.3354 7.55457 21.1064 0.942992 12.6169 1.30316C9.01521 1.45751 5.59366 2.87244 2.91815 5.29069L2.04347 4.33882C4.92478 1.71477 8.65505 0.171212 12.5654 0.0168562C21.7753 -0.39476 29.596 6.78279 29.9819 15.9927C30.1877 20.4433 28.6184 24.7138 25.6085 28.0067C22.5985 31.2997 18.4824 33.2291 14.0061 33.4092C13.7745 33.4092 13.5173 33.4092 13.26 33.4092Z" fill="black"/>
<path d="M17.3507 29.3186L16.9648 28.0837C19.6146 27.2348 21.9299 25.4597 23.422 23.0929C26.9722 17.5104 25.3258 10.0756 19.7432 6.49964C17.042 4.776 13.8262 4.21002 10.6877 4.90463C7.54909 5.59923 4.87358 7.47723 3.14994 10.1785C1.58066 12.6482 0.963232 15.6066 1.4263 18.5137L0.165726 18.7195C-0.348794 15.5037 0.345808 12.2365 2.09518 9.50958C3.97317 6.52536 6.93166 4.44156 10.4047 3.66978C13.8777 2.898 17.4279 3.54115 20.4378 5.44487C26.6121 9.38095 28.4386 17.6133 24.5025 23.8132C22.8303 26.4116 20.2835 28.3925 17.3507 29.3186Z" fill="black"/>
<path d="M13.2861 26.3604C10.8678 26.3604 8.5525 25.46 6.7774 23.8135C4.87368 22.0642 3.76746 19.6974 3.63883 17.099C3.4073 11.7738 7.54918 7.24599 12.8745 7.01445C15.9359 6.88582 18.8172 8.17212 20.7723 10.5389L19.769 11.3621C18.0711 9.30407 15.5757 8.17212 12.9259 8.30075C8.32096 8.50656 4.71932 12.4169 4.92513 17.0476C5.02803 19.2858 5.9799 21.3438 7.62636 22.8617C9.27282 24.3795 11.4081 25.1513 13.6462 25.0484C15.9616 24.9455 18.1483 23.8907 19.6661 22.1156L20.6437 22.9388C18.9201 24.9712 16.3732 26.206 13.7234 26.3347C13.5691 26.3604 13.4147 26.3604 13.2861 26.3604Z" fill="black"/>
</svg>
